<svg xmlns="http://www.w3.org/2000/svg" xmlns:xlink="http://www.w3.org/1999/xlink" zoomAndPan="magnify" preserveAspectRatio="xMidYMid meet" version="1.2" viewBox="9.55 111.55 350.12 111.78"><defs><clipPath id="5bc9f09d40"><path d="M 9.570312 111.558594 L 115.976562 111.558594 L 115.976562 223.308594 L 9.570312 223.308594 Z M 9.570312 111.558594 "/></clipPath><clipPath id="99f7ff399a"><path d="M 65.667969 111.59375 C 70.097656 111.863281 73.992188 114.324219 74.46875 117.339844 C 74.882812 120.746094 71.21875 123.519531 66.277344 123.3125 C 61.261719 123.230469 57.269531 120.183594 57.363281 116.734375 C 57.472656 113.691406 61.207031 111.492188 65.667969 111.59375 M 80.863281 214.214844 C 84.46875 213.632812 86.683594 215.097656 85.925781 217.3125 C 85.171875 219.207031 81.941406 221.203125 78.757812 221.875 C 75.410156 222.453125 72.925781 221.441406 73.320312 219.433594 C 73.691406 217.125 77.082031 214.714844 80.863281 214.214844 Z M 94.957031 190.628906 C 95.613281 190.210938 96.296875 189.847656 96.972656 189.570312 C 99.476562 187.339844 101.457031 184.148438 102.492188 180.628906 C 103.558594 176.734375 103.441406 172.726562 102.203125 169.40625 C 102.210938 169.449219 102.210938 169.449219 102.21875 169.449219 C 100.015625 166.417969 98.976562 162.046875 99.816406 157.765625 C 100.921875 151.304688 105.71875 148.140625 110.226562 150.4375 C 114.035156 152.648438 116.386719 158.847656 115.808594 164.554688 C 115.25 168.351562 113.476562 171.316406 111.148438 172.523438 C 111.164062 172.527344 111.164062 172.527344 111.171875 172.527344 C 109.15625 174.613281 107.414062 177.890625 106.402344 181.578125 C 105.8125 183.582031 105.488281 185.558594 105.433594 187.375 C 105.191406 191.460938 106.457031 190.925781 106.855469 193.78125 C 107.109375 196.191406 106.207031 199.234375 104.285156 202.105469 C 101.5625 206 97.164062 209.015625 93.367188 209.222656 C 85.085938 208.945312 89.53125 202.175781 85.421875 197.554688 C 84.40625 196.390625 83.097656 195.375 81.558594 194.582031 C 79.726562 193.667969 77.699219 193.089844 75.589844 192.902344 C 68.195312 192.117188 62.898438 195.988281 60.84375 202.710938 C 60.28125 204.417969 60.144531 206.117188 60.328125 207.703125 C 60.445312 208.929688 61.847656 211.960938 61.847656 211.957031 C 64.4375 214.046875 65.46875 216.792969 64.316406 219.261719 C 62.566406 222.503906 56.847656 223.988281 51.226562 222.96875 C 45.59375 221.613281 41.464844 217.929688 42.140625 214.328125 C 42.5 212.6875 43.660156 211.308594 45.371094 210.335938 C 48.371094 208.535156 49.203125 209.695312 52.292969 206.515625 C 53.59375 205.101562 54.601562 203.34375 55.175781 201.355469 C 58.449219 189.703125 48.144531 188.46875 50.726562 178.226562 C 52.609375 170.964844 60.128906 166.605469 67.464844 168.570312 C 67.476562 168.578125 67.476562 168.578125 67.488281 168.578125 C 68.730469 168.882812 69.949219 169.363281 71.109375 170.03125 C 80.582031 175.546875 73.558594 183.613281 84.632812 189.679688 C 87.914062 191.394531 91.621094 191.710938 94.984375 190.605469 C 94.957031 190.632812 94.957031 190.632812 94.957031 190.628906 Z M 43.707031 146.171875 C 49.191406 149.15625 54.070312 148.671875 58.300781 144.785156 C 62.496094 141.011719 60.765625 140.542969 63.53125 137.136719 C 64.9375 135.421875 67.015625 134.160156 70.339844 133.433594 C 85.28125 130.808594 93.121094 154.285156 77.785156 158.246094 C 73.71875 159.304688 70.753906 158.785156 68.203125 157.304688 C 64.3125 155.066406 66.105469 154.710938 60.933594 153.351562 C 55.097656 151.855469 50.679688 153.929688 47.152344 159.640625 C 45.804688 164.253906 42.222656 167.867188 37.820312 169.03125 C 37.816406 169.03125 37.816406 169.03125 37.808594 169.03125 C 31.234375 170.867188 24.867188 166.671875 23.390625 159.816406 C 22.566406 155.539062 23.839844 151.140625 26.464844 147.941406 C 30.613281 143.136719 32.429688 142.148438 33.382812 135.195312 C 33.746094 132.894531 33.589844 130.796875 32.886719 129.117188 C 31.835938 126.492188 31.140625 127.121094 29.660156 125.671875 C 28.386719 124.441406 27.933594 122.699219 28.601562 120.640625 C 30.015625 116.925781 35.160156 113.238281 40.320312 112.011719 C 45.84375 111.066406 50.039062 113.226562 49.578125 117.261719 C 49.398438 118.867188 48.625 120.484375 47.347656 121.957031 C 44.480469 125.429688 43.105469 124.292969 40.480469 128.925781 C 39.523438 130.699219 38.894531 132.671875 38.710938 134.703125 C 38.28125 140.480469 39.96875 142.789062 43.707031 146.171875 Z M 20.632812 177.429688 C 26.261719 177.730469 31.457031 183.433594 31.898438 189.933594 C 32.492188 196.105469 28.414062 200.101562 23.167969 199.175781 C 18.425781 198.058594 14.09375 192.921875 13.105469 187.410156 C 12.371094 181.617188 15.566406 177.023438 20.632812 177.429688 Z M 16.371094 133.148438 C 19.503906 132.21875 21.640625 134.632812 20.9375 138.714844 C 20.347656 142.996094 16.984375 147.007812 13.644531 147.539062 C 10.679688 148.089844 9.070312 145.3125 9.867188 141.425781 C 10.777344 137.773438 13.59375 134.136719 16.371094 133.148438 Z M 96.058594 125.574219 C 98.933594 126.382812 101.824219 129.34375 102.597656 132.265625 C 103.351562 135.445312 101.535156 137.605469 98.445312 137.027344 C 95.164062 136.515625 91.949219 133.242188 91.425781 129.867188 C 90.863281 126.703125 92.964844 124.820312 96.058594 125.574219 Z M 96.058594 125.574219 "/></clipPath><linearGradient x1="435.933428" gradientTransform="matrix(0.249187,0,0,-0.250225,9.073519,446.426596)" y1="1331.207071" x2="-4.749532" gradientUnits="userSpaceOnUse" y2="898.545685" id="71b962cd9b"><stop style="stop-color: rgb(13, 239, 246); stop-opacity: 1; --darkreader-inline-stopcolor: var(--darkreader-text-0deff6, #24f1f7);" offset="0" data-darkreader-inline-stopcolor=""/><stop style="stop-color: rgb(13, 239, 246); stop-opacity: 1; --darkreader-inline-stopcolor: var(--darkreader-text-0deff6, #24f1f7);" offset="0.125" data-darkreader-inline-stopcolor=""/><stop style="stop-color: rgb(13, 239, 246); stop-opacity: 1; --darkreader-inline-stopcolor: var(--darkreader-text-0deff6, #24f1f7);" offset="0.1875" data-darkreader-inline-stopcolor=""/><stop style="stop-color: rgb(13, 239, 246); stop-opacity: 1; --darkreader-inline-stopcolor: var(--darkreader-text-0deff6, #24f1f7);" offset="0.21875" data-darkreader-inline-stopcolor=""/><stop style="stop-color: rgb(13, 239, 246); stop-opacity: 1; --darkreader-inline-stopcolor: var(--darkreader-text-0deff6, #24f1f7);" offset="0.226562" data-darkreader-inline-stopcolor=""/><stop style="stop-color: rgb(14, 238, 246); stop-opacity: 1; --darkreader-inline-stopcolor: var(--darkreader-text-0eeef6, #25f0f7);" offset="0.230469" data-darkreader-inline-stopcolor=""/><stop style="stop-color: rgb(15, 237, 246); stop-opacity: 1; --darkreader-inline-stopcolor: var(--darkreader-text-0fedf6, #26eff7);" offset="0.234375" data-darkreader-inline-stopcolor=""/><stop style="stop-color: rgb(17, 235, 246); stop-opacity: 1; --darkreader-inline-stopcolor: var(--darkreader-text-11ebf6, #27edf7);" offset="0.238281" data-darkreader-inline-stopcolor=""/><stop style="stop-color: rgb(18, 234, 246); stop-opacity: 1; --darkreader-inline-stopcolor: var(--darkreader-text-12eaf6, #28ecf7);" offset="0.242188" data-darkreader-inline-stopcolor=""/><stop style="stop-color: rgb(20, 232, 246); stop-opacity: 1; --darkreader-inline-stopcolor: var(--darkreader-text-14e8f6, #29eaf7);" offset="0.246094" data-darkreader-inline-stopcolor=""/><stop style="stop-color: rgb(22, 231, 246); stop-opacity: 1; --darkreader-inline-stopcolor: var(--darkreader-text-16e7f6, #2be9f7);" offset="0.25" data-darkreader-inline-stopcolor=""/><stop style="stop-color: rgb(23, 229, 246); stop-opacity: 1; --darkreader-inline-stopcolor: var(--darkreader-text-17e5f6, #2ce7f7);" offset="0.253906" data-darkreader-inline-stopcolor=""/><stop style="stop-color: rgb(25, 227, 246); stop-opacity: 1; --darkreader-inline-stopcolor: var(--darkreader-text-19e3f6, #2de5f7);" offset="0.257813" data-darkreader-inline-stopcolor=""/><stop style="stop-color: rgb(26, 226, 246); stop-opacity: 1; --darkreader-inline-stopcolor: var(--darkreader-text-1ae2f6, #2ee4f7);" offset="0.261719" data-darkreader-inline-stopcolor=""/><stop style="stop-color: rgb(28, 224, 246); stop-opacity: 1; --darkreader-inline-stopcolor: var(--darkreader-text-1ce0f6, #2fe3f7);" offset="0.265625" data-darkreader-inline-stopcolor=""/><stop style="stop-color: rgb(30, 222, 246); stop-opacity: 1; --darkreader-inline-stopcolor: var(--darkreader-text-1edef6, #30e1f7);" offset="0.269531" data-darkreader-inline-stopcolor=""/><stop style="stop-color: rgb(31, 221, 246); stop-opacity: 1; --darkreader-inline-stopcolor: var(--darkreader-text-1fddf6, #31e0f7);" offset="0.273438" data-darkreader-inline-stopcolor=""/><stop style="stop-color: rgb(33, 219, 246); stop-opacity: 1; --darkreader-inline-stopcolor: var(--darkreader-text-21dbf6, #33def7);" offset="0.277344" data-darkreader-inline-stopcolor=""/><stop style="stop-color: rgb(35, 217, 246); stop-opacity: 1; --darkreader-inline-stopcolor: var(--darkreader-text-23d9f6, #34dcf7);" offset="0.28125" data-darkreader-inline-stopcolor=""/><stop style="stop-color: rgb(36, 216, 246); stop-opacity: 1; --darkreader-inline-stopcolor: var(--darkreader-text-24d8f6, #35dbf7);" offset="0.285156" data-darkreader-inline-stopcolor=""/><stop style="stop-color: rgb(38, 214, 246); stop-opacity: 1; --darkreader-inline-stopcolor: var(--darkreader-text-26d6f6, #36d9f7);" offset="0.289062" data-darkreader-inline-stopcolor=""/><stop style="stop-color: rgb(40, 212, 246); stop-opacity: 1; --darkreader-inline-stopcolor: var(--darkreader-text-28d4f6, #38d7f7);" offset="0.292969" data-darkreader-inline-stopcolor=""/><stop style="stop-color: rgb(41, 211, 246); stop-opacity: 1; --darkreader-inline-stopcolor: var(--darkreader-text-29d3f6, #38d6f7);" offset="0.296875" data-darkreader-inline-stopcolor=""/><stop style="stop-color: rgb(43, 209, 246); stop-opacity: 1; --darkreader-inline-stopcolor: var(--darkreader-text-2bd1f6, #3ad4f7);" offset="0.300781" data-darkreader-inline-stopcolor=""/><stop style="stop-color: rgb(45, 208, 246); stop-opacity: 1; --darkreader-inline-stopcolor: var(--darkreader-text-2dd0f6, #3bd3f7);" offset="0.304688" data-darkreader-inline-stopcolor=""/><stop style="stop-color: rgb(46, 206, 246); stop-opacity: 1; --darkreader-inline-stopcolor: var(--darkreader-text-2ecef6, #3cd1f7);" offset="0.308594" data-darkreader-inline-stopcolor=""/><stop style="stop-color: rgb(48, 204, 246); stop-opacity: 1; --darkreader-inline-stopcolor: var(--darkreader-text-30ccf6, #3dcff7);" offset="0.3125" data-darkreader-inline-stopcolor=""/><stop style="stop-color: rgb(50, 203, 246); stop-opacity: 1; --darkreader-inline-stopcolor: var(--darkreader-text-32cbf6, #3fcef7);" offset="0.316406" data-darkreader-inline-stopcolor=""/><stop style="stop-color: rgb(51, 201, 246); stop-opacity: 1; --darkreader-inline-stopcolor: var(--darkreader-text-33c9f6, #3fccf7);" offset="0.320312" data-darkreader-inline-stopcolor=""/><stop style="stop-color: rgb(53, 199, 246); stop-opacity: 1; --darkreader-inline-stopcolor: var(--darkreader-text-35c7f6, #41caf7);" offset="0.324219" data-darkreader-inline-stopcolor=""/><stop style="stop-color: rgb(55, 198, 247); stop-opacity: 1; --darkreader-inline-stopcolor: var(--darkreader-text-37c6f7, #42c9f7);" offset="0.328125" data-darkreader-inline-stopcolor=""/><stop style="stop-color: rgb(56, 196, 247); stop-opacity: 1; --darkreader-inline-stopcolor: var(--darkreader-text-38c4f7, #43c7f7);" offset="0.332031" data-darkreader-inline-stopcolor=""/><stop style="stop-color: rgb(58, 194, 247); stop-opacity: 1; --darkreader-inline-stopcolor: var(--darkreader-text-3ac2f7, #44c5f7);" offset="0.335938" data-darkreader-inline-stopcolor=""/><stop style="stop-color: rgb(59, 193, 247); stop-opacity: 1; --darkreader-inline-stopcolor: var(--darkreader-text-3bc1f7, #45c4f7);" offset="0.339844" data-darkreader-inline-stopcolor=""/><stop style="stop-color: rgb(61, 191, 247); stop-opacity: 1; --darkreader-inline-stopcolor: var(--darkreader-text-3dbff7, #46c2f7);" offset="0.34375" data-darkreader-inline-stopcolor=""/><stop style="stop-color: rgb(63, 189, 247); stop-opacity: 1; --darkreader-inline-stopcolor: var(--darkreader-text-3fbdf7, #48c0f7);" offset="0.347656" data-darkreader-inline-stopcolor=""/><stop style="stop-color: rgb(64, 188, 247); stop-opacity: 1; --darkreader-inline-stopcolor: var(--darkreader-text-40bcf7, #48bff7);" offset="0.351562" data-darkreader-inline-stopcolor=""/><stop style="stop-color: rgb(66, 186, 247); stop-opacity: 1; --darkreader-inline-stopcolor: var(--darkreader-text-42baf7, #4abdf7);" offset="0.355469" data-darkreader-inline-stopcolor=""/><stop style="stop-color: rgb(68, 185, 247); stop-opacity: 1; --darkreader-inline-stopcolor: var(--darkreader-text-44b9f7, #4bbcf7);" offset="0.359375" data-darkreader-inline-stopcolor=""/><stop style="stop-color: rgb(69, 183, 247); stop-opacity: 1; --darkreader-inline-stopcolor: var(--darkreader-text-45b7f7, #4cbaf7);" offset="0.363281" data-darkreader-inline-stopcolor=""/><stop style="stop-color: rgb(71, 181, 247); stop-opacity: 1; --darkreader-inline-stopcolor: var(--darkreader-text-47b5f7, #4db8f7);" offset="0.367188" data-darkreader-inline-stopcolor=""/><stop style="stop-color: rgb(73, 180, 247); stop-opacity: 1; --darkreader-inline-stopcolor: var(--darkreader-text-49b4f7, #4fb6f7);" offset="0.371094" data-darkreader-inline-stopcolor=""/><stop style="stop-color: rgb(74, 178, 247); stop-opacity: 1; --darkreader-inline-stopcolor: var(--darkreader-text-4ab2f7, #4fb4f7);" offset="0.375" data-darkreader-inline-stopcolor=""/><stop style="stop-color: rgb(76, 176, 247); stop-opacity: 1; --darkreader-inline-stopcolor: var(--darkreader-text-4cb0f7, #51b2f7);" offset="0.378906" data-darkreader-inline-stopcolor=""/><stop style="stop-color: rgb(78, 175, 247); stop-opacity: 1; --darkreader-inline-stopcolor: var(--darkreader-text-4eaff7, #52b2f7);" offset="0.382812" data-darkreader-inline-stopcolor=""/><stop style="stop-color: rgb(79, 173, 247); stop-opacity: 1; --darkreader-inline-stopcolor: var(--darkreader-text-4fadf7, #53b1f7);" offset="0.386719" data-darkreader-inline-stopcolor=""/><stop style="stop-color: rgb(81, 171, 247); stop-opacity: 1; --darkreader-inline-stopcolor: var(--darkreader-text-51abf7, #54b1f7);" offset="0.390625" data-darkreader-inline-stopcolor=""/><stop style="stop-color: rgb(83, 170, 247); stop-opacity: 1; --darkreader-inline-stopcolor: var(--darkreader-text-53aaf7, #56b1f7);" offset="0.394531" data-darkreader-inline-stopcolor=""/><stop style="stop-color: rgb(84, 168, 247); stop-opacity: 1; --darkreader-inline-stopcolor: var(--darkreader-text-54a8f7, #57b0f7);" offset="0.398438" data-darkreader-inline-stopcolor=""/><stop style="stop-color: rgb(86, 166, 247); stop-opacity: 1; --darkreader-inline-stopcolor: var(--darkreader-text-56a6f7, #58b0f7);" offset="0.402344" data-darkreader-inline-stopcolor=""/><stop style="stop-color: rgb(88, 165, 247); stop-opacity: 1; --darkreader-inline-stopcolor: var(--darkreader-text-58a5f7, #59b0f7);" offset="0.40625" data-darkreader-inline-stopcolor=""/><stop style="stop-color: rgb(89, 163, 247); stop-opacity: 1; --darkreader-inline-stopcolor: var(--darkreader-text-59a3f7, #5aaff7);" offset="0.410156" data-darkreader-inline-stopcolor=""/><stop style="stop-color: rgb(91, 162, 247); stop-opacity: 1; --darkreader-inline-stopcolor: var(--darkreader-text-5ba2f7, #5caff7);" offset="0.414062" data-darkreader-inline-stopcolor=""/><stop style="stop-color: rgb(92, 160, 247); stop-opacity: 1; --darkreader-inline-stopcolor: var(--darkreader-text-5ca0f7, #5caef7);" offset="0.417969" data-darkreader-inline-stopcolor=""/><stop style="stop-color: rgb(94, 158, 247); stop-opacity: 1; --darkreader-inline-stopcolor: var(--darkreader-text-5e9ef7, #5eaef7);" offset="0.421875" data-darkreader-inline-stopcolor=""/><stop style="stop-color: rgb(96, 157, 247); stop-opacity: 1; --darkreader-inline-stopcolor: var(--darkreader-text-609df7, #5fadf7);" offset="0.425781" data-darkreader-inline-stopcolor=""/><stop style="stop-color: rgb(97, 155, 247); stop-opacity: 1; --darkreader-inline-stopcolor: var(--darkreader-text-619bf7, #60adf7);" offset="0.429688" data-darkreader-inline-stopcolor=""/><stop style="stop-color: rgb(99, 153, 247); stop-opacity: 1; --darkreader-inline-stopcolor: var(--darkreader-text-6399f7, #61acf7);" offset="0.433594" data-darkreader-inline-stopcolor=""/><stop style="stop-color: rgb(101, 152, 247); stop-opacity: 1; --darkreader-inline-stopcolor: var(--darkreader-text-6598f7, #63acf7);" offset="0.4375" data-darkreader-inline-stopcolor=""/><stop style="stop-color: rgb(102, 150, 247); stop-opacity: 1; --darkreader-inline-stopcolor: var(--darkreader-text-6696f7, #63abf7);" offset="0.441406" data-darkreader-inline-stopcolor=""/><stop style="stop-color: rgb(104, 148, 247); stop-opacity: 1; --darkreader-inline-stopcolor: var(--darkreader-text-6894f7, #65abf7);" offset="0.445312" data-darkreader-inline-stopcolor=""/><stop style="stop-color: rgb(106, 147, 247); stop-opacity: 1; --darkreader-inline-stopcolor: var(--darkreader-text-6a93f7, #66abf7);" offset="0.449219" data-darkreader-inline-stopcolor=""/><stop style="stop-color: rgb(107, 145, 247); stop-opacity: 1; --darkreader-inline-stopcolor: var(--darkreader-text-6b91f7, #67aaf7);" offset="0.453125" data-darkreader-inline-stopcolor=""/><stop style="stop-color: rgb(109, 143, 247); stop-opacity: 1; --darkreader-inline-stopcolor: var(--darkreader-text-6d8ff7, #68a9f7);" offset="0.457031" data-darkreader-inline-stopcolor=""/><stop style="stop-color: rgb(111, 142, 247); stop-opacity: 1; --darkreader-inline-stopcolor: var(--darkreader-text-6f8ef7, #6aa9f7);" offset="0.460938" data-darkreader-inline-stopcolor=""/><stop style="stop-color: rgb(112, 140, 247); stop-opacity: 1; --darkreader-inline-stopcolor: var(--darkreader-text-708cf7, #6ba9f7);" offset="0.464844" data-darkreader-inline-stopcolor=""/><stop style="stop-color: rgb(114, 139, 247); stop-opacity: 1; --darkreader-inline-stopcolor: var(--darkreader-text-728bf7, #6ca8f7);" offset="0.46875" data-darkreader-inline-stopcolor=""/><stop style="stop-color: rgb(116, 137, 247); stop-opacity: 1; --darkreader-inline-stopcolor: var(--darkreader-text-7489f7, #6da8f7);" offset="0.472656" data-darkreader-inline-stopcolor=""/><stop style="stop-color: rgb(117, 135, 247); stop-opacity: 1; --darkreader-inline-stopcolor: var(--darkreader-text-7587f7, #6ea7f7);" offset="0.476562" data-darkreader-inline-stopcolor=""/><stop style="stop-color: rgb(119, 134, 247); stop-opacity: 1; --darkreader-inline-stopcolor: var(--darkreader-text-7786f7, #70a7f7);" offset="0.480469" data-darkreader-inline-stopcolor=""/><stop style="stop-color: rgb(120, 132, 247); stop-opacity: 1; --darkreader-inline-stopcolor: var(--darkreader-text-7884f7, #70a6f7);" offset="0.484375" data-darkreader-inline-stopcolor=""/><stop style="stop-color: rgb(122, 130, 247); stop-opacity: 1; --darkreader-inline-stopcolor: var(--darkreader-text-7a82f7, #72a5f7);" offset="0.488281" data-darkreader-inline-stopcolor=""/><stop style="stop-color: rgb(124, 129, 247); stop-opacity: 1; --darkreader-inline-stopcolor: var(--darkreader-text-7c81f7, #73a5f6);" offset="0.492188" data-darkreader-inline-stopcolor=""/><stop style="stop-color: rgb(125, 127, 247); stop-opacity: 1; --darkreader-inline-stopcolor: var(--darkreader-text-7d7ff7, #74a4f6);" offset="0.496094" data-darkreader-inline-stopcolor=""/><stop style="stop-color: rgb(127, 125, 247); stop-opacity: 1; --darkreader-inline-stopcolor: var(--darkreader-text-7f7df7, #74a3f6);" offset="0.5" data-darkreader-inline-stopcolor=""/><stop style="stop-color: rgb(129, 124, 247); stop-opacity: 1; --darkreader-inline-stopcolor: var(--darkreader-text-817cf7, #73a1f6);" offset="0.503906" data-darkreader-inline-stopcolor=""/><stop style="stop-color: rgb(130, 122, 247); stop-opacity: 1; --darkreader-inline-stopcolor: var(--darkreader-text-827af7, #729ff7);" offset="0.507813" data-darkreader-inline-stopcolor=""/><stop style="stop-color: rgb(132, 120, 247); stop-opacity: 1; --darkreader-inline-stopcolor: var(--darkreader-text-8478f7, #7d70f7);" offset="0.511719" data-darkreader-inline-stopcolor=""/><stop style="stop-color: rgb(134, 119, 248); stop-opacity: 1; --darkreader-inline-stopcolor: var(--darkreader-text-8677f8, #7f6ff8);" offset="0.515625" data-darkreader-inline-stopcolor=""/><stop style="stop-color: rgb(135, 117, 248); stop-opacity: 1; --darkreader-inline-stopcolor: var(--darkreader-text-8775f8, #816ef8);" offset="0.519531" data-darkreader-inline-stopcolor=""/><stop style="stop-color: rgb(137, 116, 248); stop-opacity: 1; --darkreader-inline-stopcolor: var(--darkreader-text-8974f8, #836df8);" offset="0.523438" data-darkreader-inline-stopcolor=""/><stop style="stop-color: rgb(139, 114, 248); stop-opacity: 1; --darkreader-inline-stopcolor: var(--darkreader-text-8b72f8, #866cf8);" offset="0.527344" data-darkreader-inline-stopcolor=""/><stop style="stop-color: rgb(140, 112, 248); stop-opacity: 1; --darkreader-inline-stopcolor: var(--darkreader-text-8c70f8, #876af8);" offset="0.53125" data-darkreader-inline-stopcolor=""/><stop style="stop-color: rgb(142, 111, 248); stop-opacity: 1; --darkreader-inline-stopcolor: var(--darkreader-text-8e6ff8, #8a6af8);" offset="0.535156" data-darkreader-inline-stopcolor=""/><stop style="stop-color: rgb(144, 109, 248); stop-opacity: 1; --darkreader-inline-stopcolor: var(--darkreader-text-906df8, #8c68f8);" offset="0.539063" data-darkreader-inline-stopcolor=""/><stop style="stop-color: rgb(145, 107, 248); stop-opacity: 1; --darkreader-inline-stopcolor: var(--darkreader-text-916bf8, #8e67f8);" offset="0.542969" data-darkreader-inline-stopcolor=""/><stop style="stop-color: rgb(147, 106, 248); stop-opacity: 1; --darkreader-inline-stopcolor: var(--darkreader-text-936af8, #9066f8);" offset="0.546875" data-darkreader-inline-stopcolor=""/><stop style="stop-color: rgb(149, 104, 248); stop-opacity: 1; --darkreader-inline-stopcolor: var(--darkreader-text-9568f8, #9365f8);" offset="0.550781" data-darkreader-inline-stopcolor=""/><stop style="stop-color: rgb(150, 102, 248); stop-opacity: 1; --darkreader-inline-stopcolor: var(--darkreader-text-9666f8, #9463f8);" offset="0.554688" data-darkreader-inline-stopcolor=""/><stop style="stop-color: rgb(152, 101, 248); stop-opacity: 1; --darkreader-inline-stopcolor: var(--darkreader-text-9865f8, #9662f8);" offset="0.558594" data-darkreader-inline-stopcolor=""/><stop style="stop-color: rgb(153, 99, 248); stop-opacity: 1; --darkreader-inline-stopcolor: var(--darkreader-text-9963f8, #9861f8);" offset="0.5625" data-darkreader-inline-stopcolor=""/><stop style="stop-color: rgb(155, 97, 248); stop-opacity: 1; --darkreader-inline-stopcolor: var(--darkreader-text-9b61f8, #9a60f8);" offset="0.566406" data-darkreader-inline-stopcolor=""/><stop style="stop-color: rgb(157, 96, 248); stop-opacity: 1; --darkreader-inline-stopcolor: var(--darkreader-text-9d60f8, #9c5ff8);" offset="0.570313" data-darkreader-inline-stopcolor=""/><stop style="stop-color: rgb(158, 94, 248); stop-opacity: 1; --darkreader-inline-stopcolor: var(--darkreader-text-9e5ef8, #9e5df8);" offset="0.574219" data-darkreader-inline-stopcolor=""/><stop style="stop-color: rgb(160, 93, 248); stop-opacity: 1; --darkreader-inline-stopcolor: var(--darkreader-text-a05df8, #a05df8);" offset="0.578125" data-darkreader-inline-stopcolor=""/><stop style="stop-color: rgb(162, 91, 248); stop-opacity: 1; --darkreader-inline-stopcolor: var(--darkreader-text-a25bf8, #a25bf8);" offset="0.582031" data-darkreader-inline-stopcolor=""/><stop style="stop-color: rgb(163, 89, 248); stop-opacity: 1; --darkreader-inline-stopcolor: var(--darkreader-text-a359f8, #a35af8);" offset="0.585938" data-darkreader-inline-stopcolor=""/><stop style="stop-color: rgb(165, 88, 248); stop-opacity: 1; --darkreader-inline-stopcolor: var(--darkreader-text-a558f8, #a659f8);" offset="0.589844" data-darkreader-inline-stopcolor=""/><stop style="stop-color: rgb(167, 86, 248); stop-opacity: 1; --darkreader-inline-stopcolor: var(--darkreader-text-a756f8, #a858f8);" offset="0.59375" data-darkreader-inline-stopcolor=""/><stop style="stop-color: rgb(168, 84, 248); stop-opacity: 1; --darkreader-inline-stopcolor: var(--darkreader-text-a854f8, #a956f8);" offset="0.597656" data-darkreader-inline-stopcolor=""/><stop style="stop-color: rgb(170, 83, 248); stop-opacity: 1; --darkreader-inline-stopcolor: var(--darkreader-text-aa53f8, #ab56f8);" offset="0.601563" data-darkreader-inline-stopcolor=""/><stop style="stop-color: rgb(172, 81, 248); stop-opacity: 1; --darkreader-inline-stopcolor: var(--darkreader-text-ac51f8, #ae54f8);" offset="0.605469" data-darkreader-inline-stopcolor=""/><stop style="stop-color: rgb(173, 79, 248); stop-opacity: 1; --darkreader-inline-stopcolor: var(--darkreader-text-ad4ff8, #af53f8);" offset="0.609375" data-darkreader-inline-stopcolor=""/><stop style="stop-color: rgb(175, 78, 248); stop-opacity: 1; --darkreader-inline-stopcolor: var(--darkreader-text-af4ef8, #b152f8);" offset="0.613281" data-darkreader-inline-stopcolor=""/><stop style="stop-color: rgb(177, 76, 248); stop-opacity: 1; --darkreader-inline-stopcolor: var(--darkreader-text-b14cf8, #b351f8);" offset="0.617188" data-darkreader-inline-stopcolor=""/><stop style="stop-color: rgb(178, 74, 248); stop-opacity: 1; --darkreader-inline-stopcolor: var(--darkreader-text-b24af8, #b44ff8);" offset="0.621094" data-darkreader-inline-stopcolor=""/><stop style="stop-color: rgb(180, 73, 248); stop-opacity: 1; --darkreader-inline-stopcolor: var(--darkreader-text-b449f8, #b64ef8);" offset="0.625" data-darkreader-inline-stopcolor=""/><stop style="stop-color: rgb(182, 71, 248); stop-opacity: 1; --darkreader-inline-stopcolor: var(--darkreader-text-b647f8, #b84df8);" offset="0.628906" data-darkreader-inline-stopcolor=""/><stop style="stop-color: rgb(183, 70, 248); stop-opacity: 1; --darkreader-inline-stopcolor: var(--darkreader-text-b746f8, #b94cf8);" offset="0.632813" data-darkreader-inline-stopcolor=""/><stop style="stop-color: rgb(185, 68, 248); stop-opacity: 1; --darkreader-inline-stopcolor: var(--darkreader-text-b944f8, #bc4bf8);" offset="0.636719" data-darkreader-inline-stopcolor=""/><stop style="stop-color: rgb(186, 66, 248); stop-opacity: 1; --darkreader-inline-stopcolor: var(--darkreader-text-ba42f8, #bd4af8);" offset="0.640625" data-darkreader-inline-stopcolor=""/><stop style="stop-color: rgb(188, 65, 248); stop-opacity: 1; --darkreader-inline-stopcolor: var(--darkreader-text-bc41f8, #bf49f8);" offset="0.644531" data-darkreader-inline-stopcolor=""/><stop style="stop-color: rgb(190, 63, 248); stop-opacity: 1; --darkreader-inline-stopcolor: var(--darkreader-text-be3ff8, #c147f8);" offset="0.648438" data-darkreader-inline-stopcolor=""/><stop style="stop-color: rgb(191, 61, 248); stop-opacity: 1; --darkreader-inline-stopcolor: var(--darkreader-text-bf3df8, #c246f8);" offset="0.652344" data-darkreader-inline-stopcolor=""/><stop style="stop-color: rgb(193, 60, 248); stop-opacity: 1; --darkreader-inline-stopcolor: var(--darkreader-text-c13cf8, #c445f8);" offset="0.65625" data-darkreader-inline-stopcolor=""/><stop style="stop-color: rgb(195, 58, 248); stop-opacity: 1; --darkreader-inline-stopcolor: var(--darkreader-text-c33af8, #c644f8);" offset="0.660156" data-darkreader-inline-stopcolor=""/><stop style="stop-color: rgb(196, 56, 248); stop-opacity: 1; --darkreader-inline-stopcolor: var(--darkreader-text-c438f8, #c742f8);" offset="0.664063" data-darkreader-inline-stopcolor=""/><stop style="stop-color: rgb(198, 55, 248); stop-opacity: 1; --darkreader-inline-stopcolor: var(--darkreader-text-c637f8, #c942f8);" offset="0.667969" data-darkreader-inline-stopcolor=""/><stop style="stop-color: rgb(200, 53, 248); stop-opacity: 1; --darkreader-inline-stopcolor: var(--darkreader-text-c835f8, #cb40f8);" offset="0.671875" data-darkreader-inline-stopcolor=""/><stop style="stop-color: rgb(201, 51, 248); stop-opacity: 1; --darkreader-inline-stopcolor: var(--darkreader-text-c933f8, #cc3ff8);" offset="0.675781" data-darkreader-inline-stopcolor=""/><stop style="stop-color: rgb(203, 50, 248); stop-opacity: 1; --darkreader-inline-stopcolor: var(--darkreader-text-cb32f8, #ce3ef8);" offset="0.679688" data-darkreader-inline-stopcolor=""/><stop style="stop-color: rgb(205, 48, 248); stop-opacity: 1; --darkreader-inline-stopcolor: var(--darkreader-text-cd30f8, #d03df8);" offset="0.683594" data-darkreader-inline-stopcolor=""/><stop style="stop-color: rgb(206, 47, 248); stop-opacity: 1; --darkreader-inline-stopcolor: var(--darkreader-text-ce2ff8, #d13cf8);" offset="0.6875" data-darkreader-inline-stopcolor=""/><stop style="stop-color: rgb(208, 45, 248); stop-opacity: 1; --darkreader-inline-stopcolor: var(--darkreader-text-d02df8, #d33bf8);" offset="0.691406" data-darkreader-inline-stopcolor=""/><stop style="stop-color: rgb(210, 43, 248); stop-opacity: 1; --darkreader-inline-stopcolor: var(--darkreader-text-d22bf8, #d539f8);" offset="0.695313" data-darkreader-inline-stopcolor=""/><stop style="stop-color: rgb(211, 42, 248); stop-opacity: 1; --darkreader-inline-stopcolor: var(--darkreader-text-d32af8, #d639f8);" offset="0.699219" data-darkreader-inline-stopcolor=""/><stop style="stop-color: rgb(213, 40, 249); stop-opacity: 1; --darkreader-inline-stopcolor: var(--darkreader-text-d528f9, #d837f9);" offset="0.703125" data-darkreader-inline-stopcolor=""/><stop style="stop-color: rgb(215, 38, 249); stop-opacity: 1; --darkreader-inline-stopcolor: var(--darkreader-text-d726f9, #da35f9);" offset="0.707031" data-darkreader-inline-stopcolor=""/><stop style="stop-color: rgb(216, 37, 249); stop-opacity: 1; --darkreader-inline-stopcolor: var(--darkreader-text-d825f9, #db35f9);" offset="0.710938" data-darkreader-inline-stopcolor=""/><stop style="stop-color: rgb(218, 35, 249); stop-opacity: 1; --darkreader-inline-stopcolor: var(--darkreader-text-da23f9, #dd33f9);" offset="0.714844" data-darkreader-inline-stopcolor=""/><stop style="stop-color: rgb(219, 33, 249); stop-opacity: 1; --darkreader-inline-stopcolor: var(--darkreader-text-db21f9, #de32f9);" offset="0.71875" data-darkreader-inline-stopcolor=""/><stop style="stop-color: rgb(221, 32, 249); stop-opacity: 1; --darkreader-inline-stopcolor: var(--darkreader-text-dd20f9, #e031f9);" offset="0.722656" data-darkreader-inline-stopcolor=""/><stop style="stop-color: rgb(223, 30, 249); stop-opacity: 1; --darkreader-inline-stopcolor: var(--darkreader-text-df1ef9, #e230f9);" offset="0.726563" data-darkreader-inline-stopcolor=""/><stop style="stop-color: rgb(224, 28, 249); stop-opacity: 1; --darkreader-inline-stopcolor: var(--darkreader-text-e01cf9, #e32ef9);" offset="0.730469" data-darkreader-inline-stopcolor=""/><stop style="stop-color: rgb(226, 27, 249); stop-opacity: 1; --darkreader-inline-stopcolor: var(--darkreader-text-e21bf9, #e42ef9);" offset="0.734375" data-darkreader-inline-stopcolor=""/><stop style="stop-color: rgb(228, 25, 249); stop-opacity: 1; --darkreader-inline-stopcolor: var(--darkreader-text-e419f9, #e62cfa);" offset="0.738281" data-darkreader-inline-stopcolor=""/><stop style="stop-color: rgb(229, 24, 249); stop-opacity: 1; --darkreader-inline-stopcolor: var(--darkreader-text-e518f9, #e72cfa);" offset="0.742188" data-darkreader-inline-stopcolor=""/><stop style="stop-color: rgb(231, 22, 249); stop-opacity: 1; --darkreader-inline-stopcolor: var(--darkreader-text-e716f9, #e92afa);" offset="0.746094" data-darkreader-inline-stopcolor=""/><stop style="stop-color: rgb(233, 20, 249); stop-opacity: 1; --darkreader-inline-stopcolor: var(--darkreader-text-e914f9, #eb29fa);" offset="0.75" data-darkreader-inline-stopcolor=""/><stop style="stop-color: rgb(234, 19, 249); stop-opacity: 1; --darkreader-inline-stopcolor: var(--darkreader-text-ea13f9, #ec28fa);" offset="0.753906" data-darkreader-inline-stopcolor=""/><stop style="stop-color: rgb(236, 17, 249); stop-opacity: 1; --darkreader-inline-stopcolor: var(--darkreader-text-ec11f9, #ee27fa);" offset="0.757813" data-darkreader-inline-stopcolor=""/><stop style="stop-color: rgb(238, 15, 249); stop-opacity: 1; --darkreader-inline-stopcolor: var(--darkreader-text-ee0ff9, #f025fa);" offset="0.761719" data-darkreader-inline-stopcolor=""/><stop style="stop-color: rgb(239, 14, 249); stop-opacity: 1; --darkreader-inline-stopcolor: var(--darkreader-text-ef0ef9, #f025fa);" offset="0.765625" data-darkreader-inline-stopcolor=""/><stop style="stop-color: rgb(241, 12, 249); stop-opacity: 1; --darkreader-inline-stopcolor: var(--darkreader-text-f10cf9, #f223fa);" offset="0.769531" data-darkreader-inline-stopcolor=""/><stop style="stop-color: rgb(243, 10, 249); stop-opacity: 1; --darkreader-inline-stopcolor: var(--darkreader-text-f30af9, #f422fa);" offset="0.773438" data-darkreader-inline-stopcolor=""/><stop style="stop-color: rgb(244, 9, 249); stop-opacity: 1; --darkreader-inline-stopcolor: var(--darkreader-text-f409f9, #f521fa);" offset="0.777344" data-darkreader-inline-stopcolor=""/><stop style="stop-color: rgb(246, 7, 249); stop-opacity: 1; --darkreader-inline-stopcolor: var(--darkreader-text-f607f9, #f720fa);" offset="0.78125" data-darkreader-inline-stopcolor=""/><stop style="stop-color: rgb(248, 5, 249); stop-opacity: 1; --darkreader-inline-stopcolor: var(--darkreader-text-f805f9, #fa1ffa);" offset="0.785156" data-darkreader-inline-stopcolor=""/><stop style="stop-color: rgb(249, 4, 249); stop-opacity: 1; --darkreader-inline-stopcolor: var(--darkreader-text-f904f9, #fb1ffb);" offset="0.789063" data-darkreader-inline-stopcolor=""/><stop style="stop-color: rgb(251, 2, 249); stop-opacity: 1; --darkreader-inline-stopcolor: var(--darkreader-text-fb02f9, #fd1dfb);" offset="0.792969" data-darkreader-inline-stopcolor=""/><stop style="stop-color: rgb(252, 1, 249); stop-opacity: 1; --darkreader-inline-stopcolor: var(--darkreader-text-fc01f9, #fe1cfb);" offset="0.796875" data-darkreader-inline-stopcolor=""/><stop style="stop-color: rgb(252, 1, 249); stop-opacity: 1; --darkreader-inline-stopcolor: var(--darkreader-text-fc01f9, #fe1cfb);" offset="0.8125" data-darkreader-inline-stopcolor=""/><stop style="stop-color: rgb(252, 1, 249); stop-opacity: 1; --darkreader-inline-stopcolor: var(--darkreader-text-fc01f9, #fe1cfb);" offset="0.875" data-darkreader-inline-stopcolor=""/><stop style="stop-color: rgb(252, 1, 249); stop-opacity: 1; --darkreader-inline-stopcolor: var(--darkreader-text-fc01f9, #fe1cfb);" offset="1" data-darkreader-inline-stopcolor=""/></linearGradient></defs><g id="c27fa2826d"><g style="fill: rgb(255, 255, 255); fill-opacity: 1; --darkreader-inline-fill: var(--darkreader-text-ffffff, #e8e6e3);" data-darkreader-inline-fill=""><g transform="translate(202.390669, 163.942357)"><path style="stroke: none; --darkreader-inline-stroke: none;" d="M 1.84375 -16.125 C 2.957031 -16.269531 4.101562 -16.34375 5.28125 -16.34375 C 7.46875 -16.34375 9.128906 -15.828125 10.265625 -14.796875 C 11.410156 -13.773438 11.984375 -12.242188 11.984375 -10.203125 C 11.984375 -8.378906 11.359375 -6.9375 10.109375 -5.875 C 8.941406 -4.875 7.441406 -4.375 5.609375 -4.375 C 5.398438 -4.375 5.171875 -4.390625 4.921875 -4.421875 L 4.921875 0 L 1.84375 0 Z M 5.640625 -13.4375 C 5.398438 -13.4375 5.160156 -13.425781 4.921875 -13.40625 L 4.921875 -7.0625 C 5.179688 -7.03125 5.492188 -7.015625 5.859375 -7.015625 C 6.234375 -7.015625 6.617188 -7.09375 7.015625 -7.25 C 7.421875 -7.40625 7.757812 -7.625 8.03125 -7.90625 C 8.601562 -8.5 8.890625 -9.273438 8.890625 -10.234375 C 8.890625 -12.367188 7.804688 -13.4375 5.640625 -13.4375 Z M 5.640625 -13.4375 " data-darkreader-inline-stroke=""/></g></g><g style="fill: rgb(255, 255, 255); fill-opacity: 1; --darkreader-inline-fill: var(--darkreader-text-ffffff, #e8e6e3);" data-darkreader-inline-fill=""><g transform="translate(218.218373, 163.942357)"><path style="stroke: none; --darkreader-inline-stroke: none;" d="M 11.21875 -16.109375 C 11.71875 -16.066406 12.128906 -16.046875 12.453125 -16.046875 L 13.46875 -16.046875 C 13.800781 -16.046875 14.148438 -16.078125 14.515625 -16.140625 L 14.515625 -6.15625 C 14.515625 -4.1875 13.914062 -2.601562 12.71875 -1.40625 C 11.59375 -0.269531 10.171875 0.296875 8.453125 0.296875 C 6.578125 0.296875 5.0625 -0.1875 3.90625 -1.15625 C 2.613281 -2.25 1.96875 -3.828125 1.96875 -5.890625 L 1.96875 -16.109375 C 2.632812 -16.066406 3.257812 -16.046875 3.84375 -16.046875 C 4.4375 -16.046875 4.925781 -16.078125 5.3125 -16.140625 L 5.3125 -5.734375 C 5.3125 -4.710938 5.625 -3.921875 6.25 -3.359375 C 6.820312 -2.847656 7.546875 -2.59375 8.421875 -2.59375 C 9.703125 -2.59375 10.554688 -3.253906 10.984375 -4.578125 C 11.140625 -5.046875 11.21875 -5.628906 11.21875 -6.328125 Z M 11.21875 -16.109375 " data-darkreader-inline-stroke=""/></g></g><g style="fill: rgb(255, 255, 255); fill-opacity: 1; --darkreader-inline-fill: var(--darkreader-text-ffffff, #e8e6e3);" data-darkreader-inline-fill=""><g transform="translate(238.169349, 163.942357)"><path style="stroke: none; --darkreader-inline-stroke: none;" d="M 4.421875 0 C 3.242188 0 2.460938 0.0234375 2.078125 0.078125 L 2.078125 -16.109375 C 2.265625 -16.066406 2.660156 -16.046875 3.265625 -16.046875 C 3.878906 -16.046875 4.585938 -16.0625 5.390625 -16.09375 L 5.390625 -2.890625 L 7.890625 -2.890625 C 8.609375 -2.890625 9.1875 -2.914062 9.625 -2.96875 C 9.570312 -1.082031 9.546875 -0.101562 9.546875 -0.03125 L 9.546875 0.078125 C 8.753906 0.0234375 7.429688 0 5.578125 0 Z M 4.421875 0 " data-darkreader-inline-stroke=""/></g></g><g style="fill: rgb(255, 255, 255); fill-opacity: 1; --darkreader-inline-fill: var(--darkreader-text-ffffff, #e8e6e3);" data-darkreader-inline-fill=""><g transform="translate(251.935424, 163.942357)"><path style="stroke: none; --darkreader-inline-stroke: none;" d="M 11.765625 -15.15625 L 11.53125 -11.609375 L 11.453125 -11.578125 C 10.847656 -12.472656 9.832031 -13.050781 8.40625 -13.3125 C 7.957031 -13.40625 7.523438 -13.453125 7.109375 -13.453125 C 6.691406 -13.453125 6.335938 -13.414062 6.046875 -13.34375 C 5.753906 -13.269531 5.503906 -13.164062 5.296875 -13.03125 C 4.847656 -12.738281 4.625 -12.359375 4.625 -11.890625 C 4.625 -11.273438 4.816406 -10.816406 5.203125 -10.515625 C 5.691406 -10.148438 6.492188 -9.890625 7.609375 -9.734375 C 8.722656 -9.585938 9.617188 -9.382812 10.296875 -9.125 C 10.972656 -8.875 11.53125 -8.550781 11.96875 -8.15625 C 12.789062 -7.414062 13.203125 -6.367188 13.203125 -5.015625 C 13.203125 -3.242188 12.53125 -1.878906 11.1875 -0.921875 C 10.050781 -0.109375 8.613281 0.296875 6.875 0.296875 C 5.476562 0.296875 4.09375 0.03125 2.71875 -0.5 C 2.269531 -0.675781 1.878906 -0.878906 1.546875 -1.109375 L 1.671875 -5.140625 L 1.71875 -5.171875 C 2.71875 -3.453125 4.359375 -2.59375 6.640625 -2.59375 C 8.253906 -2.59375 9.320312 -2.984375 9.84375 -3.765625 C 10.019531 -4.023438 10.109375 -4.316406 10.109375 -4.640625 C 10.109375 -4.972656 10.054688 -5.242188 9.953125 -5.453125 C 9.847656 -5.671875 9.675781 -5.851562 9.4375 -6 C 8.96875 -6.3125 8.179688 -6.519531 7.078125 -6.625 C 5.972656 -6.726562 5.070312 -6.921875 4.375 -7.203125 C 3.675781 -7.492188 3.117188 -7.851562 2.703125 -8.28125 C 1.941406 -9.050781 1.5625 -10.128906 1.5625 -11.515625 C 1.5625 -12.953125 2.066406 -14.113281 3.078125 -15 C 4.097656 -15.894531 5.472656 -16.34375 7.203125 -16.34375 C 8.941406 -16.34375 10.460938 -15.945312 11.765625 -15.15625 Z M 11.765625 -15.15625 " data-darkreader-inline-stroke=""/></g></g><g style="fill: rgb(255, 255, 255); fill-opacity: 1; --darkreader-inline-fill: var(--darkreader-text-ffffff, #e8e6e3);" data-darkreader-inline-fill=""><g transform="translate(269.776544, 163.942357)"><path style="stroke: none; --darkreader-inline-stroke: none;" d="M 10.140625 -2.890625 C 10.640625 -2.890625 10.988281 -2.941406 11.1875 -3.046875 L 11.234375 -3.03125 L 11.109375 0 L 2.078125 0 L 2.078125 -16.125 C 2.296875 -16.113281 2.535156 -16.101562 2.796875 -16.09375 L 3.640625 -16.0625 C 4.203125 -16.050781 4.8125 -16.046875 5.46875 -16.046875 C 7.3125 -16.046875 9.132812 -16.078125 10.9375 -16.140625 C 10.851562 -15.429688 10.8125 -14.484375 10.8125 -13.296875 C 10.8125 -13.171875 10.816406 -13.078125 10.828125 -13.015625 L 10.8125 -12.984375 C 10.394531 -13.097656 9.796875 -13.15625 9.015625 -13.15625 L 5.21875 -13.15625 L 5.21875 -10.078125 L 8.078125 -10.078125 C 8.960938 -10.078125 9.492188 -10.101562 9.671875 -10.15625 L 9.703125 -7.171875 C 9.316406 -7.210938 8.820312 -7.234375 8.21875 -7.234375 L 5.21875 -7.234375 L 5.21875 -2.890625 Z M 10.140625 -2.890625 " data-darkreader-inline-stroke=""/></g></g><g clip-rule="nonzero" clip-path="url(#5bc9f09d40)"><g clip-rule="nonzero" clip-path="url(#99f7ff399a)"><path style="stroke: none; fill-rule: nonzero; fill: url(&quot;#71b962cd9b&quot;); --darkreader-inline-stroke: none;" d="M 9.570312 223.308594 L 9.570312 111.558594 L 115.976562 111.558594 L 115.976562 223.308594 Z M 9.570312 223.308594 " data-darkreader-inline-stroke=""/></g></g><g style="fill: rgb(255, 255, 255); fill-opacity: 1; --darkreader-inline-fill: var(--darkreader-text-ffffff, #e8e6e3);" data-darkreader-inline-fill=""><g transform="translate(124.381469, 188.747479)"><path style="stroke: none; --darkreader-inline-stroke: none;" d="M 2.59375 0.125 C 2.03125 0.125 1.5 0.0820312 1 0 L 1 -6.984375 C 1.457031 -7.046875 1.988281 -7.078125 2.59375 -7.078125 C 3.195312 -7.078125 3.742188 -6.992188 4.234375 -6.828125 C 4.734375 -6.660156 5.148438 -6.421875 5.484375 -6.109375 C 6.148438 -5.503906 6.484375 -4.648438 6.484375 -3.546875 C 6.484375 -2.304688 6.109375 -1.367188 5.359375 -0.734375 C 4.691406 -0.160156 3.769531 0.125 2.59375 0.125 Z M 2.359375 -1.140625 C 2.578125 -1.097656 2.800781 -1.078125 3.03125 -1.078125 C 3.257812 -1.078125 3.503906 -1.117188 3.765625 -1.203125 C 4.023438 -1.296875 4.25 -1.4375 4.4375 -1.625 C 4.851562 -2.019531 5.0625 -2.597656 5.0625 -3.359375 C 5.0625 -4.609375 4.601562 -5.375 3.6875 -5.65625 C 3.394531 -5.75 3.050781 -5.796875 2.65625 -5.796875 L 2.515625 -5.796875 C 2.460938 -5.796875 2.410156 -5.796875 2.359375 -5.796875 Z M 2.359375 -1.140625 " data-darkreader-inline-stroke=""/></g></g><g style="fill: rgb(255, 255, 255); fill-opacity: 1; --darkreader-inline-fill: var(--darkreader-text-ffffff, #e8e6e3);" data-darkreader-inline-fill=""><g transform="translate(132.997451, 188.747479)"><path style="stroke: none; --darkreader-inline-stroke: none;" d="M 1.0625 -6.96875 C 1.40625 -6.945312 1.613281 -6.9375 1.6875 -6.9375 L 2.0625 -6.9375 C 2.25 -6.9375 2.398438 -6.953125 2.515625 -6.984375 L 2.5 0 L 1.0625 0 Z M 1.0625 -6.96875 " data-darkreader-inline-stroke=""/></g></g><g style="fill: rgb(255, 255, 255); fill-opacity: 1; --darkreader-inline-fill: var(--darkreader-text-ffffff, #e8e6e3);" data-darkreader-inline-fill=""><g transform="translate(138.064849, 188.747479)"><path style="stroke: none; --darkreader-inline-stroke: none;" d="M 5.09375 -6.546875 L 4.984375 -5.015625 L 4.953125 -5.015625 C 4.691406 -5.398438 4.253906 -5.648438 3.640625 -5.765625 C 3.441406 -5.796875 3.253906 -5.8125 3.078125 -5.8125 C 2.898438 -5.8125 2.742188 -5.796875 2.609375 -5.765625 C 2.484375 -5.734375 2.378906 -5.691406 2.296875 -5.640625 C 2.097656 -5.515625 2 -5.347656 2 -5.140625 C 2 -4.878906 2.082031 -4.679688 2.25 -4.546875 C 2.457031 -4.390625 2.800781 -4.28125 3.28125 -4.21875 C 3.769531 -4.15625 4.160156 -4.066406 4.453125 -3.953125 C 4.742188 -3.835938 4.984375 -3.695312 5.171875 -3.53125 C 5.523438 -3.207031 5.703125 -2.753906 5.703125 -2.171875 C 5.703125 -1.398438 5.414062 -0.8125 4.84375 -0.40625 C 4.351562 -0.0507812 3.726562 0.125 2.96875 0.125 C 2.363281 0.125 1.765625 0.0078125 1.171875 -0.21875 C 0.984375 -0.289062 0.816406 -0.378906 0.671875 -0.484375 L 0.71875 -2.21875 L 0.75 -2.234375 C 1.175781 -1.492188 1.882812 -1.125 2.875 -1.125 C 3.570312 -1.125 4.035156 -1.289062 4.265625 -1.625 C 4.335938 -1.738281 4.375 -1.863281 4.375 -2 C 4.375 -2.144531 4.347656 -2.265625 4.296875 -2.359375 C 4.253906 -2.453125 4.179688 -2.53125 4.078125 -2.59375 C 3.878906 -2.726562 3.539062 -2.816406 3.0625 -2.859375 C 2.582031 -2.910156 2.191406 -3 1.890625 -3.125 C 1.585938 -3.25 1.347656 -3.398438 1.171875 -3.578125 C 0.835938 -3.921875 0.671875 -4.390625 0.671875 -4.984375 C 0.671875 -5.597656 0.890625 -6.097656 1.328125 -6.484375 C 1.773438 -6.878906 2.375 -7.078125 3.125 -7.078125 C 3.875 -7.078125 4.53125 -6.898438 5.09375 -6.546875 Z M 5.09375 -6.546875 " data-darkreader-inline-stroke=""/></g></g><g style="fill: rgb(255, 255, 255); fill-opacity: 1; --darkreader-inline-fill: var(--darkreader-text-ffffff, #e8e6e3);" data-darkreader-inline-fill=""><g transform="translate(145.788466, 188.747479)"><path style="stroke: none; --darkreader-inline-stroke: none;" d="M 3.40625 0.03125 C 3.238281 0.0078125 2.804688 0 2.109375 0 L 1.953125 0 L 1.953125 -5.765625 L 0.90625 -5.765625 C 0.601562 -5.765625 0.421875 -5.75 0.359375 -5.71875 C 0.304688 -5.6875 0.265625 -5.660156 0.234375 -5.640625 L 0.21875 -5.640625 L 0.21875 -6.984375 L 0.234375 -7 C 0.347656 -6.957031 0.660156 -6.9375 1.171875 -6.9375 L 4.4375 -6.9375 C 4.75 -6.9375 4.929688 -6.953125 4.984375 -6.984375 C 5.035156 -7.015625 5.078125 -7.046875 5.109375 -7.078125 L 5.125 -7.0625 L 5.125 -5.734375 L 5.109375 -5.71875 C 4.992188 -5.75 4.6875 -5.765625 4.1875 -5.765625 L 3.40625 -5.765625 Z M 3.40625 0.03125 " data-darkreader-inline-stroke=""/></g></g><g style="fill: rgb(255, 255, 255); fill-opacity: 1; --darkreader-inline-fill: var(--darkreader-text-ffffff, #e8e6e3);" data-darkreader-inline-fill=""><g transform="translate(152.640592, 188.747479)"><path style="stroke: none; --darkreader-inline-stroke: none;" d="M 3.140625 -2.703125 C 3.035156 -2.691406 2.921875 -2.6875 2.796875 -2.6875 C 2.679688 -2.6875 2.507812 -2.695312 2.28125 -2.71875 L 2.28125 0 L 0.890625 0 L 0.890625 -6.984375 C 1.378906 -7.046875 1.976562 -7.078125 2.6875 -7.078125 C 3.65625 -7.078125 4.375 -6.894531 4.84375 -6.53125 C 5.320312 -6.175781 5.5625 -5.628906 5.5625 -4.890625 C 5.5625 -4.304688 5.347656 -3.8125 4.921875 -3.40625 C 4.773438 -3.269531 4.609375 -3.15625 4.421875 -3.0625 L 5.484375 -0.8125 C 5.691406 -0.351562 5.851562 -0.078125 5.96875 0.015625 L 5.9375 0.03125 C 5.601562 -0.0195312 5.078125 -0.015625 4.359375 0.046875 Z M 2.796875 -5.84375 C 2.617188 -5.84375 2.445312 -5.832031 2.28125 -5.8125 L 2.28125 -3.8125 C 2.445312 -3.789062 2.644531 -3.78125 2.875 -3.78125 C 3.101562 -3.78125 3.296875 -3.800781 3.453125 -3.84375 C 3.609375 -3.882812 3.742188 -3.945312 3.859375 -4.03125 C 4.109375 -4.21875 4.234375 -4.492188 4.234375 -4.859375 C 4.234375 -5.222656 4.101562 -5.484375 3.84375 -5.640625 C 3.601562 -5.773438 3.253906 -5.84375 2.796875 -5.84375 Z M 2.796875 -5.84375 " data-darkreader-inline-stroke=""/></g></g><g style="fill: rgb(255, 255, 255); fill-opacity: 1; --darkreader-inline-fill: var(--darkreader-text-ffffff, #e8e6e3);" data-darkreader-inline-fill=""><g transform="translate(160.364209, 188.747479)"><path style="stroke: none; --darkreader-inline-stroke: none;" d="M 1.0625 -6.96875 C 1.40625 -6.945312 1.613281 -6.9375 1.6875 -6.9375 L 2.0625 -6.9375 C 2.25 -6.9375 2.398438 -6.953125 2.515625 -6.984375 L 2.5 0 L 1.0625 0 Z M 1.0625 -6.96875 " data-darkreader-inline-stroke=""/></g></g><g style="fill: rgb(255, 255, 255); fill-opacity: 1; --darkreader-inline-fill: var(--darkreader-text-ffffff, #e8e6e3);" data-darkreader-inline-fill=""><g transform="translate(165.431607, 188.747479)"><path style="stroke: none; --darkreader-inline-stroke: none;" d="M 5.28125 -0.5 C 5.03125 -0.300781 4.695312 -0.144531 4.28125 -0.03125 C 3.875 0.0703125 3.375 0.125 2.78125 0.125 C 2.195312 0.125 1.566406 0.0703125 0.890625 -0.03125 L 0.890625 -6.90625 C 1.566406 -7.019531 2.148438 -7.078125 2.640625 -7.078125 C 3.140625 -7.078125 3.550781 -7.03125 3.875 -6.9375 C 4.195312 -6.84375 4.457031 -6.710938 4.65625 -6.546875 C 5.050781 -6.234375 5.25 -5.832031 5.25 -5.34375 C 5.25 -4.851562 5.070312 -4.445312 4.71875 -4.125 C 5.132812 -3.988281 5.460938 -3.738281 5.703125 -3.375 C 5.910156 -3.039062 6.015625 -2.671875 6.015625 -2.265625 C 6.015625 -1.867188 5.957031 -1.523438 5.84375 -1.234375 C 5.726562 -0.953125 5.539062 -0.707031 5.28125 -0.5 Z M 2.28125 -4.3125 C 2.425781 -4.289062 2.609375 -4.28125 2.828125 -4.28125 C 3.046875 -4.28125 3.222656 -4.304688 3.359375 -4.359375 C 3.503906 -4.421875 3.613281 -4.492188 3.6875 -4.578125 C 3.8125 -4.722656 3.875 -4.921875 3.875 -5.171875 C 3.875 -5.703125 3.5625 -5.96875 2.9375 -5.96875 C 2.675781 -5.96875 2.457031 -5.957031 2.28125 -5.9375 Z M 3.046875 -3.203125 C 2.753906 -3.203125 2.5 -3.179688 2.28125 -3.140625 L 2.28125 -1.09375 C 2.519531 -1.03125 2.773438 -1 3.046875 -1 C 3.316406 -1 3.550781 -1.03125 3.75 -1.09375 C 3.957031 -1.15625 4.128906 -1.242188 4.265625 -1.359375 C 4.546875 -1.585938 4.6875 -1.878906 4.6875 -2.234375 C 4.6875 -2.878906 4.140625 -3.203125 3.046875 -3.203125 Z M 3.046875 -3.203125 " data-darkreader-inline-stroke=""/></g></g><g style="fill: rgb(255, 255, 255); fill-opacity: 1; --darkreader-inline-fill: var(--darkreader-text-ffffff, #e8e6e3);" data-darkreader-inline-fill=""><g transform="translate(173.176098, 188.747479)"><path style="stroke: none; --darkreader-inline-stroke: none;" d="M 4.859375 -6.96875 C 5.066406 -6.945312 5.242188 -6.9375 5.390625 -6.9375 L 5.828125 -6.9375 C 5.972656 -6.9375 6.125 -6.953125 6.28125 -6.984375 L 6.28125 -2.671875 C 6.28125 -1.816406 6.019531 -1.128906 5.5 -0.609375 C 5.007812 -0.117188 4.394531 0.125 3.65625 0.125 C 2.84375 0.125 2.1875 -0.0820312 1.6875 -0.5 C 1.125 -0.96875 0.84375 -1.648438 0.84375 -2.546875 L 0.84375 -6.96875 C 1.132812 -6.945312 1.40625 -6.9375 1.65625 -6.9375 C 1.914062 -6.9375 2.128906 -6.953125 2.296875 -6.984375 L 2.296875 -2.484375 C 2.296875 -2.046875 2.429688 -1.703125 2.703125 -1.453125 C 2.953125 -1.234375 3.265625 -1.125 3.640625 -1.125 C 4.203125 -1.125 4.570312 -1.410156 4.75 -1.984375 C 4.820312 -2.179688 4.859375 -2.429688 4.859375 -2.734375 Z M 4.859375 -6.96875 " data-darkreader-inline-stroke=""/></g></g><g style="fill: rgb(255, 255, 255); fill-opacity: 1; --darkreader-inline-fill: var(--darkreader-text-ffffff, #e8e6e3);" data-darkreader-inline-fill=""><g transform="translate(181.812954, 188.747479)"><path style="stroke: none; --darkreader-inline-stroke: none;" d="M 3.40625 0.03125 C 3.238281 0.0078125 2.804688 0 2.109375 0 L 1.953125 0 L 1.953125 -5.765625 L 0.90625 -5.765625 C 0.601562 -5.765625 0.421875 -5.75 0.359375 -5.71875 C 0.304688 -5.6875 0.265625 -5.660156 0.234375 -5.640625 L 0.21875 -5.640625 L 0.21875 -6.984375 L 0.234375 -7 C 0.347656 -6.957031 0.660156 -6.9375 1.171875 -6.9375 L 4.4375 -6.9375 C 4.75 -6.9375 4.929688 -6.953125 4.984375 -6.984375 C 5.035156 -7.015625 5.078125 -7.046875 5.109375 -7.078125 L 5.125 -7.0625 L 5.125 -5.734375 L 5.109375 -5.71875 C 4.992188 -5.75 4.6875 -5.765625 4.1875 -5.765625 L 3.40625 -5.765625 Z M 3.40625 0.03125 " data-darkreader-inline-stroke=""/></g></g><g style="fill: rgb(255, 255, 255); fill-opacity: 1; --darkreader-inline-fill: var(--darkreader-text-ffffff, #e8e6e3);" data-darkreader-inline-fill=""><g transform="translate(188.66508, 188.747479)"><path style="stroke: none; --darkreader-inline-stroke: none;" d="M 4.390625 -1.25 C 4.609375 -1.25 4.757812 -1.269531 4.84375 -1.3125 L 4.859375 -1.3125 L 4.8125 0 L 0.890625 0 L 0.890625 -6.984375 C 0.984375 -6.972656 1.085938 -6.96875 1.203125 -6.96875 L 1.578125 -6.953125 C 1.816406 -6.941406 2.082031 -6.9375 2.375 -6.9375 C 3.164062 -6.9375 3.953125 -6.953125 4.734375 -6.984375 C 4.691406 -6.671875 4.671875 -6.257812 4.671875 -5.75 C 4.671875 -5.695312 4.675781 -5.65625 4.6875 -5.625 L 4.671875 -5.609375 C 4.492188 -5.660156 4.238281 -5.6875 3.90625 -5.6875 L 2.265625 -5.6875 L 2.265625 -4.359375 L 3.5 -4.359375 C 3.882812 -4.359375 4.113281 -4.367188 4.1875 -4.390625 L 4.203125 -3.109375 C 4.035156 -3.117188 3.816406 -3.125 3.546875 -3.125 L 2.265625 -3.125 L 2.265625 -1.25 Z M 4.390625 -1.25 " data-darkreader-inline-stroke=""/></g></g><g style="fill: rgb(255, 255, 255); fill-opacity: 1; --darkreader-inline-fill: var(--darkreader-text-ffffff, #e8e6e3);" data-darkreader-inline-fill=""><g transform="translate(195.517207, 188.747479)"><path style="stroke: none; --darkreader-inline-stroke: none;" d="M 2.59375 0.125 C 2.03125 0.125 1.5 0.0820312 1 0 L 1 -6.984375 C 1.457031 -7.046875 1.988281 -7.078125 2.59375 -7.078125 C 3.195312 -7.078125 3.742188 -6.992188 4.234375 -6.828125 C 4.734375 -6.660156 5.148438 -6.421875 5.484375 -6.109375 C 6.148438 -5.503906 6.484375 -4.648438 6.484375 -3.546875 C 6.484375 -2.304688 6.109375 -1.367188 5.359375 -0.734375 C 4.691406 -0.160156 3.769531 0.125 2.59375 0.125 Z M 2.359375 -1.140625 C 2.578125 -1.097656 2.800781 -1.078125 3.03125 -1.078125 C 3.257812 -1.078125 3.503906 -1.117188 3.765625 -1.203125 C 4.023438 -1.296875 4.25 -1.4375 4.4375 -1.625 C 4.851562 -2.019531 5.0625 -2.597656 5.0625 -3.359375 C 5.0625 -4.609375 4.601562 -5.375 3.6875 -5.65625 C 3.394531 -5.75 3.050781 -5.796875 2.65625 -5.796875 L 2.515625 -5.796875 C 2.460938 -5.796875 2.410156 -5.796875 2.359375 -5.796875 Z M 2.359375 -1.140625 " data-darkreader-inline-stroke=""/></g></g><g style="fill: rgb(255, 255, 255); fill-opacity: 1; --darkreader-inline-fill: var(--darkreader-text-ffffff, #e8e6e3);" data-darkreader-inline-fill=""><g transform="translate(204.133188, 188.747479)"><path style="stroke: none; --darkreader-inline-stroke: none;" d="" data-darkreader-inline-stroke=""/></g></g><g style="fill: rgb(255, 255, 255); fill-opacity: 1; --darkreader-inline-fill: var(--darkreader-text-ffffff, #e8e6e3);" data-darkreader-inline-fill=""><g transform="translate(209.174494, 188.747479)"><path style="stroke: none; --darkreader-inline-stroke: none;" d="M 3.40625 0.03125 C 3.238281 0.0078125 2.804688 0 2.109375 0 L 1.953125 0 L 1.953125 -5.765625 L 0.90625 -5.765625 C 0.601562 -5.765625 0.421875 -5.75 0.359375 -5.71875 C 0.304688 -5.6875 0.265625 -5.660156 0.234375 -5.640625 L 0.21875 -5.640625 L 0.21875 -6.984375 L 0.234375 -7 C 0.347656 -6.957031 0.660156 -6.9375 1.171875 -6.9375 L 4.4375 -6.9375 C 4.75 -6.9375 4.929688 -6.953125 4.984375 -6.984375 C 5.035156 -7.015625 5.078125 -7.046875 5.109375 -7.078125 L 5.125 -7.0625 L 5.125 -5.734375 L 5.109375 -5.71875 C 4.992188 -5.75 4.6875 -5.765625 4.1875 -5.765625 L 3.40625 -5.765625 Z M 3.40625 0.03125 " data-darkreader-inline-stroke=""/></g></g><g style="fill: rgb(255, 255, 255); fill-opacity: 1; --darkreader-inline-fill: var(--darkreader-text-ffffff, #e8e6e3);" data-darkreader-inline-fill=""><g transform="translate(216.02662, 188.747479)"><path style="stroke: none; --darkreader-inline-stroke: none;" d="M 1.40625 0.046875 C 1.101562 0.015625 0.753906 0 0.359375 0 L -0.0625 0 L 2.21875 -6.359375 C 2.3125 -6.648438 2.359375 -6.816406 2.359375 -6.859375 C 2.359375 -6.910156 2.359375 -6.941406 2.359375 -6.953125 C 2.585938 -6.941406 2.828125 -6.9375 3.078125 -6.9375 C 3.285156 -6.9375 3.535156 -6.941406 3.828125 -6.953125 L 3.84375 -6.9375 C 3.832031 -6.925781 3.828125 -6.910156 3.828125 -6.890625 C 3.828125 -6.816406 3.878906 -6.640625 3.984375 -6.359375 L 6.296875 0.015625 C 6.234375 0.015625 6.15625 0.015625 6.0625 0.015625 C 6.0625 0.015625 5.96875 0.0078125 5.78125 0 C 5.695312 0 5.617188 0 5.546875 0 L 4.75 0 L 4.25 -1.5 L 1.890625 -1.5 Z M 3.84375 -2.75 L 3.0625 -5.1875 L 2.296875 -2.75 Z M 3.84375 -2.75 " data-darkreader-inline-stroke=""/></g></g><g style="fill: rgb(255, 255, 255); fill-opacity: 1; --darkreader-inline-fill: var(--darkreader-text-ffffff, #e8e6e3);" data-darkreader-inline-fill=""><g transform="translate(223.771111, 188.747479)"><path style="stroke: none; --darkreader-inline-stroke: none;" d="M 5.09375 -6.546875 L 4.984375 -5.015625 L 4.953125 -5.015625 C 4.691406 -5.398438 4.253906 -5.648438 3.640625 -5.765625 C 3.441406 -5.796875 3.253906 -5.8125 3.078125 -5.8125 C 2.898438 -5.8125 2.742188 -5.796875 2.609375 -5.765625 C 2.484375 -5.734375 2.378906 -5.691406 2.296875 -5.640625 C 2.097656 -5.515625 2 -5.347656 2 -5.140625 C 2 -4.878906 2.082031 -4.679688 2.25 -4.546875 C 2.457031 -4.390625 2.800781 -4.28125 3.28125 -4.21875 C 3.769531 -4.15625 4.160156 -4.066406 4.453125 -3.953125 C 4.742188 -3.835938 4.984375 -3.695312 5.171875 -3.53125 C 5.523438 -3.207031 5.703125 -2.753906 5.703125 -2.171875 C 5.703125 -1.398438 5.414062 -0.8125 4.84375 -0.40625 C 4.351562 -0.0507812 3.726562 0.125 2.96875 0.125 C 2.363281 0.125 1.765625 0.0078125 1.171875 -0.21875 C 0.984375 -0.289062 0.816406 -0.378906 0.671875 -0.484375 L 0.71875 -2.21875 L 0.75 -2.234375 C 1.175781 -1.492188 1.882812 -1.125 2.875 -1.125 C 3.570312 -1.125 4.035156 -1.289062 4.265625 -1.625 C 4.335938 -1.738281 4.375 -1.863281 4.375 -2 C 4.375 -2.144531 4.347656 -2.265625 4.296875 -2.359375 C 4.253906 -2.453125 4.179688 -2.53125 4.078125 -2.59375 C 3.878906 -2.726562 3.539062 -2.816406 3.0625 -2.859375 C 2.582031 -2.910156 2.191406 -3 1.890625 -3.125 C 1.585938 -3.25 1.347656 -3.398438 1.171875 -3.578125 C 0.835938 -3.921875 0.671875 -4.390625 0.671875 -4.984375 C 0.671875 -5.597656 0.890625 -6.097656 1.328125 -6.484375 C 1.773438 -6.878906 2.375 -7.078125 3.125 -7.078125 C 3.875 -7.078125 4.53125 -6.898438 5.09375 -6.546875 Z M 5.09375 -6.546875 " data-darkreader-inline-stroke=""/></g></g><g style="fill: rgb(255, 255, 255); fill-opacity: 1; --darkreader-inline-fill: var(--darkreader-text-ffffff, #e8e6e3);" data-darkreader-inline-fill=""><g transform="translate(231.494728, 188.747479)"><path style="stroke: none; --darkreader-inline-stroke: none;" d="M 2.234375 0.03125 C 1.992188 0.0078125 1.6875 0 1.3125 0 L 0.890625 0 L 0.890625 -6.96875 L 1.109375 -6.953125 C 1.253906 -6.941406 1.363281 -6.9375 1.4375 -6.9375 L 1.59375 -6.9375 C 1.894531 -6.9375 2.109375 -6.953125 2.234375 -6.984375 L 2.234375 -4.03125 L 4.34375 -6.96875 C 4.5625 -6.945312 4.75 -6.9375 4.90625 -6.9375 L 5.1875 -6.9375 C 5.550781 -6.9375 5.804688 -6.953125 5.953125 -6.984375 L 3.9375 -4.359375 L 5.921875 -0.421875 C 6.003906 -0.222656 6.082031 -0.0820312 6.15625 0 L 5.84375 0 C 5.113281 0 4.65625 0.015625 4.46875 0.046875 C 4.4375 -0.191406 4.382812 -0.394531 4.3125 -0.5625 L 2.984375 -3.109375 L 2.234375 -2.109375 Z M 2.234375 0.03125 " data-darkreader-inline-stroke=""/></g></g><g style="fill: rgb(255, 255, 255); fill-opacity: 1; --darkreader-inline-fill: var(--darkreader-text-ffffff, #e8e6e3);" data-darkreader-inline-fill=""><g transform="translate(239.218345, 188.747479)"><path style="stroke: none; --darkreader-inline-stroke: none;" d="" data-darkreader-inline-stroke=""/></g></g><g style="fill: rgb(255, 255, 255); fill-opacity: 1; --darkreader-inline-fill: var(--darkreader-text-ffffff, #e8e6e3);" data-darkreader-inline-fill=""><g transform="translate(244.25965, 188.747479)"><path style="stroke: none; --darkreader-inline-stroke: none;" d="M 4.390625 -1.25 C 4.609375 -1.25 4.757812 -1.269531 4.84375 -1.3125 L 4.859375 -1.3125 L 4.8125 0 L 0.890625 0 L 0.890625 -6.984375 C 0.984375 -6.972656 1.085938 -6.96875 1.203125 -6.96875 L 1.578125 -6.953125 C 1.816406 -6.941406 2.082031 -6.9375 2.375 -6.9375 C 3.164062 -6.9375 3.953125 -6.953125 4.734375 -6.984375 C 4.691406 -6.671875 4.671875 -6.257812 4.671875 -5.75 C 4.671875 -5.695312 4.675781 -5.65625 4.6875 -5.625 L 4.671875 -5.609375 C 4.492188 -5.660156 4.238281 -5.6875 3.90625 -5.6875 L 2.265625 -5.6875 L 2.265625 -4.359375 L 3.5 -4.359375 C 3.882812 -4.359375 4.113281 -4.367188 4.1875 -4.390625 L 4.203125 -3.109375 C 4.035156 -3.117188 3.816406 -3.125 3.546875 -3.125 L 2.265625 -3.125 L 2.265625 -1.25 Z M 4.390625 -1.25 " data-darkreader-inline-stroke=""/></g></g><g style="fill: rgb(255, 255, 255); fill-opacity: 1; --darkreader-inline-fill: var(--darkreader-text-ffffff, #e8e6e3);" data-darkreader-inline-fill=""><g transform="translate(251.111777, 188.747479)"><path style="stroke: none; --darkreader-inline-stroke: none;" d="M 4.0625 -6.4375 C 4.132812 -6.582031 4.171875 -6.691406 4.171875 -6.765625 C 4.171875 -6.847656 4.164062 -6.90625 4.15625 -6.9375 L 6.03125 -6.9375 C 5.988281 -6.894531 5.9375 -6.84375 5.875 -6.78125 C 5.820312 -6.726562 5.757812 -6.660156 5.6875 -6.578125 C 5.507812 -6.390625 5.347656 -6.164062 5.203125 -5.90625 L 3.953125 -3.609375 L 5.125 -1.40625 L 5.265625 -1.109375 C 5.523438 -0.566406 5.75 -0.195312 5.9375 0 L 4.234375 0 C 4.222656 -0.125 4.164062 -0.285156 4.0625 -0.484375 L 3.03125 -2.453125 C 2.3125 -0.992188 1.945312 -0.242188 1.9375 -0.203125 C 1.914062 -0.140625 1.898438 -0.0703125 1.890625 0 L 0.1875 0 C 0.3125 -0.132812 0.441406 -0.320312 0.578125 -0.5625 L 1.203125 -1.671875 L 2.328125 -3.546875 L 0.859375 -6.296875 C 0.703125 -6.597656 0.566406 -6.8125 0.453125 -6.9375 L 2.203125 -6.9375 C 2.191406 -6.90625 2.1875 -6.867188 2.1875 -6.828125 C 2.1875 -6.734375 2.226562 -6.601562 2.3125 -6.4375 L 3.1875 -4.6875 Z M 4.0625 -6.4375 " data-darkreader-inline-stroke=""/></g></g><g style="fill: rgb(255, 255, 255); fill-opacity: 1; --darkreader-inline-fill: var(--darkreader-text-ffffff, #e8e6e3);" data-darkreader-inline-fill=""><g transform="translate(258.835394, 188.747479)"><path style="stroke: none; --darkreader-inline-stroke: none;" d="M 4.390625 -1.25 C 4.609375 -1.25 4.757812 -1.269531 4.84375 -1.3125 L 4.859375 -1.3125 L 4.8125 0 L 0.890625 0 L 0.890625 -6.984375 C 0.984375 -6.972656 1.085938 -6.96875 1.203125 -6.96875 L 1.578125 -6.953125 C 1.816406 -6.941406 2.082031 -6.9375 2.375 -6.9375 C 3.164062 -6.9375 3.953125 -6.953125 4.734375 -6.984375 C 4.691406 -6.671875 4.671875 -6.257812 4.671875 -5.75 C 4.671875 -5.695312 4.675781 -5.65625 4.6875 -5.625 L 4.671875 -5.609375 C 4.492188 -5.660156 4.238281 -5.6875 3.90625 -5.6875 L 2.265625 -5.6875 L 2.265625 -4.359375 L 3.5 -4.359375 C 3.882812 -4.359375 4.113281 -4.367188 4.1875 -4.390625 L 4.203125 -3.109375 C 4.035156 -3.117188 3.816406 -3.125 3.546875 -3.125 L 2.265625 -3.125 L 2.265625 -1.25 Z M 4.390625 -1.25 " data-darkreader-inline-stroke=""/></g></g><g style="fill: rgb(255, 255, 255); fill-opacity: 1; --darkreader-inline-fill: var(--darkreader-text-ffffff, #e8e6e3);" data-darkreader-inline-fill=""><g transform="translate(265.687521, 188.747479)"><path style="stroke: none; --darkreader-inline-stroke: none;" d="M 4.015625 -7.078125 C 4.660156 -7.078125 5.210938 -6.960938 5.671875 -6.734375 L 5.671875 -5.140625 L 5.65625 -5.125 C 5.46875 -5.425781 5.0625 -5.625 4.4375 -5.71875 C 4.25 -5.75 4.015625 -5.765625 3.734375 -5.765625 C 3.453125 -5.765625 3.175781 -5.710938 2.90625 -5.609375 C 2.632812 -5.503906 2.410156 -5.351562 2.234375 -5.15625 C 1.898438 -4.78125 1.734375 -4.238281 1.734375 -3.53125 C 1.734375 -2.71875 1.945312 -2.109375 2.375 -1.703125 C 2.726562 -1.367188 3.195312 -1.203125 3.78125 -1.203125 C 4.4375 -1.203125 4.972656 -1.34375 5.390625 -1.625 C 5.535156 -1.726562 5.660156 -1.851562 5.765625 -2 L 5.78125 -2 L 5.78125 -0.53125 C 5.25 -0.09375 4.53125 0.125 3.625 0.125 C 2.570312 0.125 1.742188 -0.207031 1.140625 -0.875 C 0.554688 -1.519531 0.265625 -2.375 0.265625 -3.4375 C 0.265625 -4.5625 0.582031 -5.445312 1.21875 -6.09375 C 1.863281 -6.75 2.796875 -7.078125 4.015625 -7.078125 Z M 4.015625 -7.078125 " data-darkreader-inline-stroke=""/></g></g><g style="fill: rgb(255, 255, 255); fill-opacity: 1; --darkreader-inline-fill: var(--darkreader-text-ffffff, #e8e6e3);" data-darkreader-inline-fill=""><g transform="translate(273.385045, 188.747479)"><path style="stroke: none; --darkreader-inline-stroke: none;" d="M 4.859375 -6.96875 C 5.066406 -6.945312 5.242188 -6.9375 5.390625 -6.9375 L 5.828125 -6.9375 C 5.972656 -6.9375 6.125 -6.953125 6.28125 -6.984375 L 6.28125 -2.671875 C 6.28125 -1.816406 6.019531 -1.128906 5.5 -0.609375 C 5.007812 -0.117188 4.394531 0.125 3.65625 0.125 C 2.84375 0.125 2.1875 -0.0820312 1.6875 -0.5 C 1.125 -0.96875 0.84375 -1.648438 0.84375 -2.546875 L 0.84375 -6.96875 C 1.132812 -6.945312 1.40625 -6.9375 1.65625 -6.9375 C 1.914062 -6.9375 2.128906 -6.953125 2.296875 -6.984375 L 2.296875 -2.484375 C 2.296875 -2.046875 2.429688 -1.703125 2.703125 -1.453125 C 2.953125 -1.234375 3.265625 -1.125 3.640625 -1.125 C 4.203125 -1.125 4.570312 -1.410156 4.75 -1.984375 C 4.820312 -2.179688 4.859375 -2.429688 4.859375 -2.734375 Z M 4.859375 -6.96875 " data-darkreader-inline-stroke=""/></g></g><g style="fill: rgb(255, 255, 255); fill-opacity: 1; --darkreader-inline-fill: var(--darkreader-text-ffffff, #e8e6e3);" data-darkreader-inline-fill=""><g transform="translate(282.021901, 188.747479)"><path style="stroke: none; --darkreader-inline-stroke: none;" d="M 3.40625 0.03125 C 3.238281 0.0078125 2.804688 0 2.109375 0 L 1.953125 0 L 1.953125 -5.765625 L 0.90625 -5.765625 C 0.601562 -5.765625 0.421875 -5.75 0.359375 -5.71875 C 0.304688 -5.6875 0.265625 -5.660156 0.234375 -5.640625 L 0.21875 -5.640625 L 0.21875 -6.984375 L 0.234375 -7 C 0.347656 -6.957031 0.660156 -6.9375 1.171875 -6.9375 L 4.4375 -6.9375 C 4.75 -6.9375 4.929688 -6.953125 4.984375 -6.984375 C 5.035156 -7.015625 5.078125 -7.046875 5.109375 -7.078125 L 5.125 -7.0625 L 5.125 -5.734375 L 5.109375 -5.71875 C 4.992188 -5.75 4.6875 -5.765625 4.1875 -5.765625 L 3.40625 -5.765625 Z M 3.40625 0.03125 " data-darkreader-inline-stroke=""/></g></g><g style="fill: rgb(255, 255, 255); fill-opacity: 1; --darkreader-inline-fill: var(--darkreader-text-ffffff, #e8e6e3);" data-darkreader-inline-fill=""><g transform="translate(288.874027, 188.747479)"><path style="stroke: none; --darkreader-inline-stroke: none;" d="M 1.0625 -6.96875 C 1.40625 -6.945312 1.613281 -6.9375 1.6875 -6.9375 L 2.0625 -6.9375 C 2.25 -6.9375 2.398438 -6.953125 2.515625 -6.984375 L 2.5 0 L 1.0625 0 Z M 1.0625 -6.96875 " data-darkreader-inline-stroke=""/></g></g><g style="fill: rgb(255, 255, 255); fill-opacity: 1; --darkreader-inline-fill: var(--darkreader-text-ffffff, #e8e6e3);" data-darkreader-inline-fill=""><g transform="translate(293.941425, 188.747479)"><path style="stroke: none; --darkreader-inline-stroke: none;" d="M 1.453125 -0.828125 C 1.140625 -1.128906 0.890625 -1.488281 0.703125 -1.90625 C 0.523438 -2.332031 0.4375 -2.800781 0.4375 -3.3125 C 0.4375 -3.820312 0.519531 -4.300781 0.6875 -4.75 C 0.863281 -5.195312 1.109375 -5.59375 1.421875 -5.9375 C 1.742188 -6.28125 2.128906 -6.554688 2.578125 -6.765625 C 3.023438 -6.972656 3.53125 -7.078125 4.09375 -7.078125 C 5.050781 -7.078125 5.859375 -6.769531 6.515625 -6.15625 C 7.210938 -5.507812 7.5625 -4.640625 7.5625 -3.546875 C 7.5625 -2.484375 7.203125 -1.597656 6.484375 -0.890625 C 6.035156 -0.453125 5.503906 -0.148438 4.890625 0.015625 C 4.585938 0.0859375 4.234375 0.125 3.828125 0.125 C 3.421875 0.125 3.003906 0.0390625 2.578125 -0.125 C 2.148438 -0.289062 1.773438 -0.523438 1.453125 -0.828125 Z M 1.890625 -3.375 C 1.890625 -3.050781 1.941406 -2.753906 2.046875 -2.484375 C 2.160156 -2.210938 2.3125 -1.984375 2.5 -1.796875 C 2.90625 -1.378906 3.429688 -1.171875 4.078125 -1.171875 C 4.679688 -1.171875 5.171875 -1.367188 5.546875 -1.765625 C 5.921875 -2.171875 6.109375 -2.722656 6.109375 -3.421875 C 6.109375 -4.085938 5.925781 -4.640625 5.5625 -5.078125 C 5.175781 -5.554688 4.648438 -5.796875 3.984375 -5.796875 C 3.328125 -5.796875 2.8125 -5.554688 2.4375 -5.078125 C 2.070312 -4.628906 1.890625 -4.0625 1.890625 -3.375 Z M 1.890625 -3.375 " data-darkreader-inline-stroke=""/></g></g><g style="fill: rgb(255, 255, 255); fill-opacity: 1; --darkreader-inline-fill: var(--darkreader-text-ffffff, #e8e6e3);" data-darkreader-inline-fill=""><g transform="translate(303.449771, 188.747479)"><path style="stroke: none; --darkreader-inline-stroke: none;" d="M 0.9375 0 C 0.957031 -0.113281 0.96875 -0.242188 0.96875 -0.390625 L 0.96875 -6.9375 L 2.015625 -6.9375 L 4.78125 -2.59375 L 4.78125 -6.578125 C 4.78125 -6.773438 4.765625 -6.894531 4.734375 -6.9375 L 6.140625 -6.9375 C 6.117188 -6.800781 6.109375 -6.648438 6.109375 -6.484375 L 6.109375 0 L 5.03125 0 L 2.3125 -4.1875 L 2.3125 0 Z M 0.9375 0 " data-darkreader-inline-stroke=""/></g></g><g style="fill: rgb(255, 255, 255); fill-opacity: 1; --darkreader-inline-fill: var(--darkreader-text-ffffff, #e8e6e3);" data-darkreader-inline-fill=""><g transform="translate(312.03966, 188.747479)"><path style="stroke: none; --darkreader-inline-stroke: none;" d="" data-darkreader-inline-stroke=""/></g></g><g style="fill: rgb(255, 255, 255); fill-opacity: 1; --darkreader-inline-fill: var(--darkreader-text-ffffff, #e8e6e3);" data-darkreader-inline-fill=""><g transform="translate(317.080965, 188.747479)"><path style="stroke: none; --darkreader-inline-stroke: none;" d="M 4.390625 -1.25 C 4.609375 -1.25 4.757812 -1.269531 4.84375 -1.3125 L 4.859375 -1.3125 L 4.8125 0 L 0.890625 0 L 0.890625 -6.984375 C 0.984375 -6.972656 1.085938 -6.96875 1.203125 -6.96875 L 1.578125 -6.953125 C 1.816406 -6.941406 2.082031 -6.9375 2.375 -6.9375 C 3.164062 -6.9375 3.953125 -6.953125 4.734375 -6.984375 C 4.691406 -6.671875 4.671875 -6.257812 4.671875 -5.75 C 4.671875 -5.695312 4.675781 -5.65625 4.6875 -5.625 L 4.671875 -5.609375 C 4.492188 -5.660156 4.238281 -5.6875 3.90625 -5.6875 L 2.265625 -5.6875 L 2.265625 -4.359375 L 3.5 -4.359375 C 3.882812 -4.359375 4.113281 -4.367188 4.1875 -4.390625 L 4.203125 -3.109375 C 4.035156 -3.117188 3.816406 -3.125 3.546875 -3.125 L 2.265625 -3.125 L 2.265625 -1.25 Z M 4.390625 -1.25 " data-darkreader-inline-stroke=""/></g></g><g style="fill: rgb(255, 255, 255); fill-opacity: 1; --darkreader-inline-fill: var(--darkreader-text-ffffff, #e8e6e3);" data-darkreader-inline-fill=""><g transform="translate(323.933092, 188.747479)"><path style="stroke: none; --darkreader-inline-stroke: none;" d="M 0.9375 0 C 0.957031 -0.113281 0.96875 -0.242188 0.96875 -0.390625 L 0.96875 -6.9375 L 2.015625 -6.9375 L 4.78125 -2.59375 L 4.78125 -6.578125 C 4.78125 -6.773438 4.765625 -6.894531 4.734375 -6.9375 L 6.140625 -6.9375 C 6.117188 -6.800781 6.109375 -6.648438 6.109375 -6.484375 L 6.109375 0 L 5.03125 0 L 2.3125 -4.1875 L 2.3125 0 Z M 0.9375 0 " data-darkreader-inline-stroke=""/></g></g><g style="fill: rgb(255, 255, 255); fill-opacity: 1; --darkreader-inline-fill: var(--darkreader-text-ffffff, #e8e6e3);" data-darkreader-inline-fill=""><g transform="translate(332.522981, 188.747479)"><path style="stroke: none; --darkreader-inline-stroke: none;" d="M 6.609375 -4.1875 C 6.546875 -4.070312 6.515625 -3.785156 6.515625 -3.328125 L 6.515625 -1.71875 C 6.515625 -1.226562 6.257812 -0.800781 5.75 -0.4375 C 5.226562 -0.0625 4.585938 0.125 3.828125 0.125 C 2.765625 0.125 1.921875 -0.203125 1.296875 -0.859375 C 0.679688 -1.492188 0.375 -2.300781 0.375 -3.28125 C 0.375 -4.332031 0.6875 -5.203125 1.3125 -5.890625 C 2 -6.679688 2.953125 -7.078125 4.171875 -7.078125 C 4.984375 -7.078125 5.625 -6.914062 6.09375 -6.59375 L 6.015625 -5.0625 L 5.96875 -5.046875 C 5.84375 -5.265625 5.601562 -5.441406 5.25 -5.578125 C 4.90625 -5.703125 4.546875 -5.765625 4.171875 -5.765625 C 3.796875 -5.765625 3.46875 -5.703125 3.1875 -5.578125 C 2.914062 -5.460938 2.679688 -5.296875 2.484375 -5.078125 C 2.078125 -4.628906 1.875 -4.035156 1.875 -3.296875 C 1.875 -2.660156 2.050781 -2.144531 2.40625 -1.75 C 2.769531 -1.363281 3.238281 -1.171875 3.8125 -1.171875 C 4.4375 -1.171875 4.859375 -1.335938 5.078125 -1.671875 C 5.148438 -1.773438 5.1875 -1.890625 5.1875 -2.015625 L 5.1875 -2.890625 L 4.515625 -2.890625 C 4.148438 -2.890625 3.953125 -2.859375 3.921875 -2.796875 L 3.90625 -2.796875 L 3.859375 -4.15625 C 3.960938 -4.132812 4.359375 -4.125 5.046875 -4.125 L 5.65625 -4.125 C 6.039062 -4.125 6.351562 -4.148438 6.59375 -4.203125 Z M 6.609375 -4.1875 " data-darkreader-inline-stroke=""/></g></g><g style="fill: rgb(255, 255, 255); fill-opacity: 1; --darkreader-inline-fill: var(--darkreader-text-ffffff, #e8e6e3);" data-darkreader-inline-fill=""><g transform="translate(341.138962, 188.747479)"><path style="stroke: none; --darkreader-inline-stroke: none;" d="M 1.0625 -6.96875 C 1.40625 -6.945312 1.613281 -6.9375 1.6875 -6.9375 L 2.0625 -6.9375 C 2.25 -6.9375 2.398438 -6.953125 2.515625 -6.984375 L 2.5 0 L 1.0625 0 Z M 1.0625 -6.96875 " data-darkreader-inline-stroke=""/></g></g><g style="fill: rgb(255, 255, 255); fill-opacity: 1; --darkreader-inline-fill: var(--darkreader-text-ffffff, #e8e6e3);" data-darkreader-inline-fill=""><g transform="translate(346.20636, 188.747479)"><path style="stroke: none; --darkreader-inline-stroke: none;" d="M 0.9375 0 C 0.957031 -0.113281 0.96875 -0.242188 0.96875 -0.390625 L 0.96875 -6.9375 L 2.015625 -6.9375 L 4.78125 -2.59375 L 4.78125 -6.578125 C 4.78125 -6.773438 4.765625 -6.894531 4.734375 -6.9375 L 6.140625 -6.9375 C 6.117188 -6.800781 6.109375 -6.648438 6.109375 -6.484375 L 6.109375 0 L 5.03125 0 L 2.3125 -4.1875 L 2.3125 0 Z M 0.9375 0 " data-darkreader-inline-stroke=""/></g></g><g style="fill: rgb(255, 255, 255); fill-opacity: 1; --darkreader-inline-fill: var(--darkreader-text-ffffff, #e8e6e3);" data-darkreader-inline-fill=""><g transform="translate(354.796249, 188.747479)"><path style="stroke: none; --darkreader-inline-stroke: none;" d="M 4.390625 -1.25 C 4.609375 -1.25 4.757812 -1.269531 4.84375 -1.3125 L 4.859375 -1.3125 L 4.8125 0 L 0.890625 0 L 0.890625 -6.984375 C 0.984375 -6.972656 1.085938 -6.96875 1.203125 -6.96875 L 1.578125 -6.953125 C 1.816406 -6.941406 2.082031 -6.9375 2.375 -6.9375 C 3.164062 -6.9375 3.953125 -6.953125 4.734375 -6.984375 C 4.691406 -6.671875 4.671875 -6.257812 4.671875 -5.75 C 4.671875 -5.695312 4.675781 -5.65625 4.6875 -5.625 L 4.671875 -5.609375 C 4.492188 -5.660156 4.238281 -5.6875 3.90625 -5.6875 L 2.265625 -5.6875 L 2.265625 -4.359375 L 3.5 -4.359375 C 3.882812 -4.359375 4.113281 -4.367188 4.1875 -4.390625 L 4.203125 -3.109375 C 4.035156 -3.117188 3.816406 -3.125 3.546875 -3.125 L 2.265625 -3.125 L 2.265625 -1.25 Z M 4.390625 -1.25 " data-darkreader-inline-stroke=""/></g></g></g></svg>